<svg height="512pt" viewBox="0 0 512.00001 512" width="512pt" xmlns="http://www.w3.org/2000/svg"><path d="m123.332031 326.660156h-63.800781l59.515625-91.492187h102.230469zm0 0" fill="#63a8e4"/><path d="m373.089844 0h30v66.0625h-30zm0 0" fill="#fed330"/><path d="m388.078125 0h15.011719v66.0625h-15.011719zm0 0" fill="#fb983b"/><path d="m335.105469 178.777344h105.949219v185.921875h-105.949219zm0 0" fill="#72c9ef"/><path d="m388.078125 178.777344h52.976563v185.921875h-52.976563zm0 0" fill="#63a8e4"/><path d="m119.582031 183.667969-50.050781-76.941407h62.46875l70.308594 72.050782zm0 0" fill="#72c9ef"/><path d="m486.636719 69.984375c-31.417969-11.3125-64.574219-17.050781-98.546875-17.050781-.003906 0 0 0 0 0-33.972656 0-67.132813 5.738281-98.546875 17.050781l-9.917969 3.570313v103.832031l10.566406 3.269531c37.050782 11.460938 67.75 16.816406 96.433594 16.816406.488281 0 .976562 0 1.464844-.003906.488281.003906.976562.003906 1.464844.003906 28.683593 0 59.382812-5.359375 96.429687-16.816406l10.570313-3.269531v-103.828125zm0 0" fill="#72c9ef"/><path d="m24 364.699219h463.550781v131.5h-463.550781zm0 0" fill="#517adb"/><path d="m277.582031 254.167969h-277.097656v-116.695313h32.535156l22.296875 30h164.800782c31.6875 0 57.464843 25.777344 57.464843 57.464844zm0 0" fill="#517adb"/><path d="m.484375 209.617188v44.550781h277.097656v-29.230469c0-5.304688-.742187-10.4375-2.097656-15.316406h-275zm0 0" fill="#404c9f"/><path d="m486.636719 69.984375c-31.417969-11.3125-64.574219-17.050781-98.546875-17.050781-.003906 0 0 0 0 0-.003906 0-.007813 0-.011719 0v144.535156h.011719c.488281.003906.976562.003906 1.464844.003906 28.683593 0 59.382812-5.359375 96.429687-16.816406l10.570313-3.269531v-103.828125zm0 0" fill="#63a8e4"/><path d="m388.078125 364.699219h99.472656v131.5h-99.472656zm0 0" fill="#404c9f"/><path d="m279.625 125.203125v52.1875l10.566406 3.265625c37.050782 11.460938 67.75 16.816406 96.433594 16.816406.488281 0 .976562 0 1.464844-.003906.488281.003906.976562.003906 1.464844.003906 28.683593 0 59.382812-5.355468 96.429687-16.816406l10.570313-3.265625v-52.1875zm0 0" fill="#63a8e4"/><path d="m388.078125 125.203125v72.265625h.011719c.488281.003906.976562.003906 1.464844.003906 28.683593 0 59.382812-5.355468 96.429687-16.816406l10.570313-3.265625v-52.1875zm0 0" fill="#517adb"/><path d="m0 349.699219h512v30h-512zm0 0" fill="#63a8e4"/><path d="m388.078125 349.699219h123.921875v30h-123.921875zm0 0" fill="#517adb"/><path d="m0 482h512v30h-512zm0 0" fill="#63a8e4"/><path d="m388.078125 482h123.921875v30h-123.921875zm0 0" fill="#517adb"/><g fill="#fed330"><path d="m75.375 409.160156h29.59375v30h-29.59375zm0 0"/><path d="m135.378906 409.160156h29.59375v30h-29.59375zm0 0"/><path d="m195.382812 409.160156h29.589844v30h-29.589844zm0 0"/><path d="m255.386719 409.160156h29.589843v30h-29.589843zm0 0"/><path d="m315.390625 409.160156h29.589844v30h-29.589844zm0 0"/><path d="m373.394531 409.160156h29.589844v30h-29.589844zm0 0"/><path d="m315.390625 409.160156h29.589844v30h-29.589844zm0 0"/></g><path d="m388.078125 409.160156h14.90625v30h-14.90625zm0 0" fill="#fb983b"/></svg>